<svg width="18" height="18" viewBox="0 0 18 18" fill="none" xmlns="http://www.w3.org/2000/svg">
<g id="Group 2">
<rect id="Rectangle" opacity="0.01" width="18" height="18" rx="1" fill="#D8D8D8"/>
<g id="noun_Delete_1623338">
<g id="Group">
<path id="Shape" fill-rule="evenodd" clip-rule="evenodd" d="M16.7188 2.59569H12.9102V1.9407C12.9102 0.873315 12.0369 0 10.9695 0H7.03959C5.9722 0 5.09889 0.873315 5.09889 1.9407V2.59569H1.29026C0.902123 2.61995 0.586759 2.93531 0.5625 3.32345C0.5625 3.73585 0.877864 4.05121 1.29026 4.05121H2.47894V16.0593C2.47894 17.1267 3.35226 18 4.41964 18H13.5652C14.6326 18 15.5059 17.1267 15.5059 16.0593V4.05121H16.6946C17.107 4.05121 17.4223 3.73585 17.4223 3.32345C17.4223 2.93531 17.107 2.61995 16.7188 2.59569ZM6.55441 1.9407C6.55441 1.67385 6.77274 1.45553 7.03959 1.45553H10.9695C11.2364 1.45553 11.4547 1.67385 11.4547 1.9407V2.59569H6.55441V1.9407ZM13.5652 16.5445C13.832 16.5445 14.0504 16.3261 14.0504 16.0593L14.0746 4.05121H3.95873V16.0593C3.95873 16.3261 4.17706 16.5445 4.4439 16.5445H13.5652Z" fill="#333333"/>
<path id="Path" d="M6.77235 14.2156C6.79661 14.2156 6.79661 14.2156 6.82087 14.2156C7.23327 14.2156 7.54863 13.9002 7.54863 13.4878V6.96223C7.54863 6.54983 7.23327 6.23447 6.82087 6.23447C6.43273 6.21021 6.11737 6.52557 6.09311 6.91371C6.09311 6.93797 6.09311 6.93797 6.09311 6.96223V13.4878C6.06885 13.876 6.38421 14.1913 6.77235 14.2156Z" fill="#333333"/>
<path id="Path_2" d="M11.1877 14.2158C11.5759 14.24 11.8912 13.9246 11.9155 13.5365C11.9155 13.5122 11.9155 13.5122 11.9155 13.488V6.96238C11.9397 6.57424 11.6244 6.25888 11.2362 6.23462C11.212 6.23462 11.212 6.23462 11.1877 6.23462C10.7753 6.23462 10.46 6.54998 10.46 6.96238V13.488C10.46 13.9004 10.7753 14.2158 11.1877 14.2158Z" fill="#333333"/>
</g>
</g>
</g>
</svg>
