<svg xmlns="http://www.w3.org/2000/svg" xmlns:xlink="http://www.w3.org/1999/xlink" width="50" zoomAndPan="magnify" viewBox="0 0 37.5 37.499999" height="50" preserveAspectRatio="xMidYMid meet" version="1.0"><defs><clipPath id="id1"><path d="M 9 8.484375 L 17 8.484375 L 17 14 L 9 14 Z M 9 8.484375 " clip-rule="nonzero"/></clipPath><clipPath id="id2"><path d="M 4.308594 16 L 20 16 L 20 28.734375 L 4.308594 28.734375 Z M 4.308594 16 " clip-rule="nonzero"/></clipPath><clipPath id="id3"><path d="M 4.308594 17 L 7 17 L 7 23 L 4.308594 23 Z M 4.308594 17 " clip-rule="nonzero"/></clipPath><clipPath id="id4"><path d="M 20 16 L 33.558594 16 L 33.558594 28 L 20 28 Z M 20 16 " clip-rule="nonzero"/></clipPath></defs><g clip-path="url(#id1)"><path fill="#38ad38" d="M 16.84375 12.878906 C 16.828125 12.890625 16.816406 12.898438 16.800781 12.90625 C 16.636719 13.015625 16.375 13.160156 16.035156 13.261719 C 16.019531 13.269531 16 13.273438 15.984375 13.277344 C 14.585938 13.664062 12.96875 12.957031 12.03125 12.003906 C 11.464844 11.433594 11.511719 11.144531 10.847656 10.617188 C 10.230469 10.128906 9.582031 9.898438 9.136719 9.78125 C 9.449219 9.511719 10.40625 8.753906 11.867188 8.632812 C 12.300781 8.597656 13.734375 8.535156 15.050781 9.507812 C 16.699219 10.730469 16.828125 12.601562 16.84375 12.878906 Z M 16.84375 12.878906 " fill-opacity="1" fill-rule="nonzero"/></g><path fill="#2a962a" d="M 16.800781 12.90625 C 16.636719 13.015625 16.375 13.160156 16.035156 13.261719 C 15.957031 13.039062 15.839844 12.738281 15.648438 12.40625 C 15.648438 12.40625 15.328125 11.847656 14.835938 11.359375 C 14.21875 10.742188 12.796875 10.011719 10.863281 9.710938 C 11.382812 9.660156 13.089844 9.554688 14.753906 10.625 C 15.960938 11.398438 16.554688 12.414062 16.800781 12.90625 Z M 16.800781 12.90625 " fill-opacity="1" fill-rule="nonzero"/><path fill="#1e0a02" d="M 11.394531 19.738281 L 11.113281 19.585938 C 13.390625 15.589844 16.679688 12.167969 20.621094 9.6875 L 20.796875 9.953125 C 16.898438 12.402344 13.648438 15.789062 11.394531 19.738281 Z M 11.394531 19.738281 " fill-opacity="1" fill-rule="nonzero"/><g clip-path="url(#id2)"><path fill="#d32f2e" d="M 9.683594 16.300781 C 8.9375 16.164062 7.902344 15.976562 6.867188 16.5 C 5.800781 17.039062 5.367188 18.015625 5.082031 18.652344 C 4.320312 20.359375 4.609375 21.941406 4.71875 22.503906 C 5.261719 25.285156 7.328125 26.820312 7.605469 27.015625 C 9.898438 28.65625 12.394531 28.441406 13.144531 28.335938 C 14.824219 28.101562 16.460938 27.445312 17.707031 26.324219 C 18.957031 25.207031 19.777344 23.609375 19.785156 21.957031 C 19.785156 21.539062 19.636719 19.101562 17.453125 17.808594 C 15.164062 16.453125 12.746094 17.613281 12.605469 17.683594 C 12.054688 17.230469 11.066406 16.558594 9.683594 16.300781 Z M 9.683594 16.300781 " fill-opacity="1" fill-rule="nonzero"/></g><g clip-path="url(#id3)"><path fill="#d12f46" d="M 5.238281 22.851562 C 5.171875 22.164062 5.152344 21.183594 5.402344 20.042969 C 5.613281 19.09375 5.945312 18.324219 6.238281 17.769531 C 5.917969 18.15625 5.425781 18.851562 5.164062 19.835938 C 4.796875 21.207031 5.078125 22.351562 5.238281 22.851562 Z M 5.238281 22.851562 " fill-opacity="1" fill-rule="nonzero"/></g><path fill="#d12f46" d="M 15.140625 26.921875 C 14.222656 27.253906 13.410156 27.324219 12.871094 27.328125 C 13.199219 27.414062 14.171875 27.625 15.269531 27.195312 C 16.164062 26.847656 16.675781 26.257812 16.890625 25.980469 C 16.496094 26.273438 15.910156 26.644531 15.140625 26.921875 Z M 15.140625 26.921875 " fill-opacity="1" fill-rule="nonzero"/><path fill="#d12f46" d="M 17.003906 25.8125 C 17.1875 25.761719 17.347656 25.652344 17.457031 25.5 C 17.527344 25.402344 17.601562 25.257812 17.601562 25.136719 C 17.597656 24.945312 17.488281 25.082031 17.4375 25.167969 C 17.300781 25.386719 17.191406 25.628906 17.003906 25.8125 Z M 17.003906 25.8125 " fill-opacity="1" fill-rule="nonzero"/><path fill="#1e0a02" d="M 27.371094 19.667969 C 25.402344 16.21875 22.5625 13.257812 19.152344 11.117188 L 19.328125 10.851562 C 22.78125 13.023438 25.660156 16.019531 27.65625 19.515625 Z M 27.371094 19.667969 " fill-opacity="1" fill-rule="nonzero"/><g clip-path="url(#id4)"><path fill="#d32f2e" d="M 28.886719 16.65625 C 29.539062 16.535156 30.445312 16.371094 31.347656 16.828125 C 32.28125 17.296875 32.664062 18.152344 32.914062 18.710938 C 33.578125 20.203125 33.324219 21.589844 33.230469 22.078125 C 32.753906 24.511719 30.945312 25.855469 30.703125 26.027344 C 28.695312 27.460938 26.515625 27.273438 25.859375 27.179688 C 24.390625 26.976562 22.957031 26.402344 21.867188 25.421875 C 20.777344 24.445312 20.054688 23.046875 20.050781 21.601562 C 20.050781 21.234375 20.179688 19.101562 22.089844 17.972656 C 24.09375 16.785156 26.207031 17.800781 26.332031 17.863281 C 26.8125 17.464844 27.675781 16.878906 28.886719 16.65625 Z M 28.886719 16.65625 " fill-opacity="1" fill-rule="nonzero"/></g><path fill="#d12f46" d="M 32.773438 22.382812 C 32.835938 21.78125 32.847656 20.925781 32.628906 19.925781 C 32.445312 19.09375 32.15625 18.421875 31.902344 17.9375 C 32.179688 18.277344 32.609375 18.882812 32.839844 19.746094 C 33.160156 20.945312 32.914062 21.945312 32.773438 22.382812 Z M 32.773438 22.382812 " fill-opacity="1" fill-rule="nonzero"/><path fill="#d12f46" d="M 24.113281 25.945312 C 24.917969 26.234375 25.625 26.296875 26.097656 26.300781 C 25.8125 26.375 24.960938 26.558594 24 26.183594 C 23.21875 25.878906 22.769531 25.363281 22.585938 25.121094 C 22.929688 25.378906 23.4375 25.699219 24.113281 25.945312 Z M 24.113281 25.945312 " fill-opacity="1" fill-rule="nonzero"/><path fill="#d12f46" d="M 22.484375 24.972656 C 22.324219 24.929688 22.183594 24.832031 22.085938 24.699219 C 22.023438 24.613281 21.960938 24.488281 21.960938 24.378906 C 21.964844 24.214844 22.058594 24.335938 22.105469 24.40625 C 22.222656 24.601562 22.320312 24.8125 22.484375 24.972656 Z M 22.484375 24.972656 " fill-opacity="1" fill-rule="nonzero"/></svg>