<svg xmlns="http://www.w3.org/2000/svg" xmlns:xlink="http://www.w3.org/1999/xlink" width="50" zoomAndPan="magnify" viewBox="0 0 37.5 37.499999" height="50" preserveAspectRatio="xMidYMid meet" version="1.0"><defs><g/><clipPath id="id1"><path d="M 7 2.550781 L 30 2.550781 L 30 19 L 7 19 Z M 7 2.550781 " clip-rule="nonzero"/></clipPath><clipPath id="id2"><path d="M 6 15 L 31.910156 15 L 31.910156 21 L 6 21 Z M 6 15 " clip-rule="nonzero"/></clipPath><clipPath id="id3"><path d="M 5.660156 16 L 31.910156 16 L 31.910156 22 L 5.660156 22 Z M 5.660156 16 " clip-rule="nonzero"/></clipPath></defs><g clip-path="url(#id1)"><path fill="#d32f2e" d="M 29.652344 14.832031 C 28.160156 15.917969 23.738281 18.808594 17.507812 18.691406 C 12.679688 18.597656 9.128906 16.75 7.5 15.757812 C 7.683594 15.492188 7.871094 15.21875 8.058594 14.949219 C 8.503906 14.308594 8.960938 13.660156 9.441406 13.007812 C 10.679688 11.300781 12.027344 9.554688 13.492188 7.777344 C 15.027344 5.914062 16.558594 4.195312 18.050781 2.601562 C 20.015625 4.351562 22.070312 6.320312 24.167969 8.535156 C 25.445312 9.882812 26.632812 11.214844 27.738281 12.515625 C 28.203125 13.0625 28.652344 13.601562 29.085938 14.136719 C 29.277344 14.367188 29.46875 14.601562 29.652344 14.832031 Z M 29.652344 14.832031 " fill-opacity="1" fill-rule="nonzero"/></g><path fill="#ea3f54" d="M 30.714844 16.089844 C 27.90625 18.199219 23.640625 19.804688 17.414062 19.636719 C 12.429688 19.503906 9.269531 18.289062 6.824219 16.695312 C 7.355469 15.929688 7.203125 16.160156 7.773438 15.378906 C 9.535156 16.371094 12.832031 17.675781 17.113281 17.910156 C 23.332031 18.25 27.867188 15.894531 29.621094 14.796875 C 30.175781 15.445312 30.195312 15.449219 30.714844 16.089844 Z M 30.714844 16.089844 " fill-opacity="1" fill-rule="nonzero"/><g clip-path="url(#id2)"><path fill="#ef7743" d="M 31.5625 17.121094 C 28.554688 19.378906 23.988281 21.082031 17.316406 20.902344 C 11.976562 20.761719 8.699219 19.488281 6.082031 17.78125 C 6.648438 16.960938 6.4375 17.210938 7.046875 16.375 C 8.933594 17.4375 12.410156 18.804688 16.992188 19.054688 C 23.65625 19.417969 28.535156 16.894531 30.410156 15.71875 C 31.007812 16.414062 31.007812 16.4375 31.5625 17.121094 Z M 31.5625 17.121094 " fill-opacity="1" fill-rule="nonzero"/></g><g clip-path="url(#id3)"><path fill="#578900" d="M 31.886719 17.527344 C 28.8125 19.839844 24.140625 21.996094 17.320312 21.8125 C 11.859375 21.664062 8.332031 20.167969 5.652344 18.421875 C 6.230469 17.582031 6.191406 17.550781 6.816406 16.695312 C 8.746094 17.78125 12.304688 19.367188 16.992188 19.621094 C 23.808594 19.992188 28.804688 17.292969 30.726562 16.089844 C 31.335938 16.800781 31.320312 16.828125 31.886719 17.527344 Z M 31.886719 17.527344 " fill-opacity="1" fill-rule="nonzero"/></g><path fill="#1e0a02" d="M 18.152344 6.089844 C 18.046875 6 17.878906 5.992188 17.761719 6.046875 C 17.445312 6.1875 17.382812 6.816406 17.589844 7.222656 C 17.640625 7.320312 17.699219 7.390625 17.746094 7.441406 C 17.796875 7.40625 17.863281 7.359375 17.929688 7.285156 C 18.261719 6.9375 18.398438 6.304688 18.152344 6.089844 Z M 18.152344 6.089844 " fill-opacity="1" fill-rule="nonzero"/><path fill="#1e0a02" d="M 15.429688 7.820312 C 15.324219 7.730469 15.15625 7.71875 15.035156 7.773438 C 14.722656 7.917969 14.660156 8.542969 14.867188 8.949219 C 14.917969 9.046875 14.976562 9.117188 15.023438 9.167969 C 15.070312 9.136719 15.140625 9.085938 15.207031 9.015625 C 15.539062 8.664062 15.671875 8.03125 15.429688 7.820312 Z M 15.429688 7.820312 " fill-opacity="1" fill-rule="nonzero"/><path fill="#1e0a02" d="M 15.832031 12.828125 C 15.726562 12.738281 15.558594 12.726562 15.441406 12.78125 C 15.125 12.925781 15.0625 13.550781 15.269531 13.957031 C 15.320312 14.054688 15.378906 14.128906 15.425781 14.175781 C 15.476562 14.144531 15.542969 14.09375 15.609375 14.023438 C 15.941406 13.675781 16.078125 13.039062 15.832031 12.828125 Z M 15.832031 12.828125 " fill-opacity="1" fill-rule="nonzero"/><path fill="#1e0a02" d="M 21.03125 8 C 20.925781 7.910156 20.757812 7.902344 20.636719 7.957031 C 20.324219 8.097656 20.261719 8.726562 20.46875 9.132812 C 20.519531 9.230469 20.578125 9.300781 20.625 9.351562 C 20.671875 9.316406 20.742188 9.269531 20.808594 9.195312 C 21.140625 8.847656 21.273438 8.214844 21.03125 8 Z M 21.03125 8 " fill-opacity="1" fill-rule="nonzero"/><path fill="#1e0a02" d="M 18.554688 10.445312 C 18.449219 10.355469 18.28125 10.34375 18.164062 10.398438 C 17.847656 10.542969 17.785156 11.167969 17.996094 11.574219 C 18.042969 11.671875 18.101562 11.742188 18.148438 11.792969 C 18.199219 11.761719 18.265625 11.710938 18.332031 11.636719 C 18.664062 11.289062 18.800781 10.65625 18.554688 10.445312 Z M 18.554688 10.445312 " fill-opacity="1" fill-rule="nonzero"/><path fill="#1e0a02" d="M 18.496094 15.453125 C 18.390625 15.363281 18.222656 15.355469 18.101562 15.410156 C 17.789062 15.550781 17.726562 16.179688 17.933594 16.585938 C 17.984375 16.679688 18.042969 16.753906 18.089844 16.800781 C 18.140625 16.769531 18.207031 16.71875 18.273438 16.648438 C 18.605469 16.300781 18.738281 15.664062 18.496094 15.453125 Z M 18.496094 15.453125 " fill-opacity="1" fill-rule="nonzero"/><path fill="#1e0a02" d="M 20.78125 12.75 C 20.675781 12.660156 20.507812 12.652344 20.390625 12.707031 C 20.074219 12.847656 20.011719 13.476562 20.21875 13.882812 C 20.269531 13.980469 20.328125 14.050781 20.375 14.101562 C 20.425781 14.066406 20.492188 14.015625 20.558594 13.945312 C 20.890625 13.597656 21.027344 12.960938 20.78125 12.75 Z M 20.78125 12.75 " fill-opacity="1" fill-rule="nonzero"/><path fill="#1e0a02" d="M 23.28125 10.066406 C 23.175781 9.976562 23.007812 9.964844 22.890625 10.019531 C 22.574219 10.164062 22.511719 10.789062 22.71875 11.195312 C 22.769531 11.292969 22.828125 11.363281 22.875 11.414062 C 22.925781 11.382812 22.992188 11.332031 23.058594 11.257812 C 23.390625 10.910156 23.527344 10.277344 23.28125 10.066406 Z M 23.28125 10.066406 " fill-opacity="1" fill-rule="nonzero"/><path fill="#1e0a02" d="M 23.488281 14.988281 C 23.382812 14.898438 23.214844 14.886719 23.09375 14.941406 C 22.78125 15.085938 22.71875 15.710938 22.925781 16.117188 C 22.976562 16.214844 23.035156 16.289062 23.082031 16.335938 C 23.128906 16.304688 23.199219 16.253906 23.265625 16.183594 C 23.597656 15.832031 23.730469 15.199219 23.488281 14.988281 Z M 23.488281 14.988281 " fill-opacity="1" fill-rule="nonzero"/><path fill="#1e0a02" d="M 25.15625 12.773438 C 25.054688 12.683594 24.886719 12.675781 24.765625 12.730469 C 24.453125 12.871094 24.390625 13.5 24.597656 13.90625 C 24.644531 14.003906 24.703125 14.074219 24.75 14.125 C 24.800781 14.089844 24.867188 14.042969 24.9375 13.96875 C 25.265625 13.621094 25.402344 12.988281 25.15625 12.773438 Z M 25.15625 12.773438 " fill-opacity="1" fill-rule="nonzero"/><path fill="#1e0a02" d="M 11.128906 12.75 C 11.023438 12.660156 10.855469 12.652344 10.738281 12.707031 C 10.421875 12.847656 10.359375 13.476562 10.566406 13.882812 C 10.617188 13.980469 10.675781 14.050781 10.722656 14.101562 C 10.773438 14.066406 10.839844 14.015625 10.90625 13.945312 C 11.238281 13.597656 11.375 12.960938 11.128906 12.75 Z M 11.128906 12.75 " fill-opacity="1" fill-rule="nonzero"/><path fill="#1e0a02" d="M 13.714844 10.378906 C 13.613281 10.289062 13.445312 10.277344 13.324219 10.332031 C 13.011719 10.476562 12.949219 11.101562 13.15625 11.507812 C 13.203125 11.605469 13.261719 11.679688 13.308594 11.726562 C 13.359375 11.695312 13.425781 11.644531 13.496094 11.574219 C 13.824219 11.222656 13.960938 10.589844 13.714844 10.378906 Z M 13.714844 10.378906 " fill-opacity="1" fill-rule="nonzero"/><path fill="#1e0a02" d="M 13.089844 14.988281 C 12.988281 14.898438 12.820312 14.886719 12.699219 14.941406 C 12.386719 15.085938 12.324219 15.710938 12.53125 16.117188 C 12.582031 16.214844 12.640625 16.289062 12.683594 16.335938 C 12.734375 16.304688 12.800781 16.253906 12.871094 16.183594 C 13.203125 15.832031 13.335938 15.199219 13.089844 14.988281 Z M 13.089844 14.988281 " fill-opacity="1" fill-rule="nonzero"/><g fill="#000000" fill-opacity="1"><g transform="translate(9.154622, 29.895756)"><g><path d="M 3.375 0 L 2.625 0 L 2.625 -1.546875 L 1.203125 -1.546875 L 1.203125 0 L 0.453125 0 L 0.453125 -3.5625 L 1.203125 -3.5625 L 1.203125 -2.171875 L 2.625 -2.171875 L 2.625 -3.5625 L 3.375 -3.5625 Z M 3.375 0 "/></g></g><g transform="translate(12.980305, 29.895756)"><g><path d="M 1.515625 -2.25 C 1.359375 -2.25 1.234375 -2.195312 1.140625 -2.09375 C 1.054688 -2 1.007812 -1.859375 1 -1.671875 L 2.046875 -1.671875 C 2.035156 -1.859375 1.984375 -2 1.890625 -2.09375 C 1.804688 -2.195312 1.679688 -2.25 1.515625 -2.25 Z M 1.625 0.046875 C 1.1875 0.046875 0.84375 -0.0703125 0.59375 -0.3125 C 0.34375 -0.550781 0.21875 -0.894531 0.21875 -1.34375 C 0.21875 -1.800781 0.332031 -2.15625 0.5625 -2.40625 C 0.789062 -2.65625 1.109375 -2.78125 1.515625 -2.78125 C 1.898438 -2.78125 2.195312 -2.671875 2.40625 -2.453125 C 2.625 -2.234375 2.734375 -1.929688 2.734375 -1.546875 L 2.734375 -1.171875 L 0.984375 -1.171875 C 0.984375 -0.960938 1.039062 -0.796875 1.15625 -0.671875 C 1.28125 -0.554688 1.445312 -0.5 1.65625 -0.5 C 1.820312 -0.5 1.976562 -0.515625 2.125 -0.546875 C 2.269531 -0.585938 2.421875 -0.644531 2.578125 -0.71875 L 2.578125 -0.140625 C 2.453125 -0.078125 2.316406 -0.03125 2.171875 0 C 2.023438 0.03125 1.84375 0.046875 1.625 0.046875 Z M 1.625 0.046875 "/></g></g><g transform="translate(15.934406, 29.895756)"><g><path d="M 1.140625 0 L 0.390625 0 L 0.390625 -3.796875 L 1.140625 -3.796875 Z M 1.140625 0 "/></g></g><g transform="translate(17.460285, 29.895756)"><g><path d="M 1.890625 0.046875 C 1.566406 0.046875 1.316406 -0.0664062 1.140625 -0.296875 L 1.09375 -0.296875 C 1.125 -0.0664062 1.140625 0.0625 1.140625 0.09375 L 1.140625 1.203125 L 0.390625 1.203125 L 0.390625 -2.734375 L 1 -2.734375 L 1.09375 -2.375 L 1.140625 -2.375 C 1.304688 -2.644531 1.5625 -2.78125 1.90625 -2.78125 C 2.226562 -2.78125 2.476562 -2.65625 2.65625 -2.40625 C 2.84375 -2.15625 2.9375 -1.8125 2.9375 -1.375 C 2.9375 -1.082031 2.894531 -0.828125 2.8125 -0.609375 C 2.726562 -0.390625 2.601562 -0.222656 2.4375 -0.109375 C 2.28125 -0.00390625 2.097656 0.046875 1.890625 0.046875 Z M 1.671875 -2.1875 C 1.484375 -2.1875 1.347656 -2.128906 1.265625 -2.015625 C 1.179688 -1.898438 1.140625 -1.710938 1.140625 -1.453125 L 1.140625 -1.375 C 1.140625 -1.082031 1.179688 -0.867188 1.265625 -0.734375 C 1.347656 -0.609375 1.488281 -0.546875 1.6875 -0.546875 C 2.019531 -0.546875 2.1875 -0.820312 2.1875 -1.375 C 2.1875 -1.644531 2.144531 -1.847656 2.0625 -1.984375 C 1.976562 -2.117188 1.847656 -2.1875 1.671875 -2.1875 Z M 1.671875 -2.1875 "/></g></g><g transform="translate(20.624347, 29.895756)"><g><path d="M 1.515625 -2.25 C 1.359375 -2.25 1.234375 -2.195312 1.140625 -2.09375 C 1.054688 -2 1.007812 -1.859375 1 -1.671875 L 2.046875 -1.671875 C 2.035156 -1.859375 1.984375 -2 1.890625 -2.09375 C 1.804688 -2.195312 1.679688 -2.25 1.515625 -2.25 Z M 1.625 0.046875 C 1.1875 0.046875 0.84375 -0.0703125 0.59375 -0.3125 C 0.34375 -0.550781 0.21875 -0.894531 0.21875 -1.34375 C 0.21875 -1.800781 0.332031 -2.15625 0.5625 -2.40625 C 0.789062 -2.65625 1.109375 -2.78125 1.515625 -2.78125 C 1.898438 -2.78125 2.195312 -2.671875 2.40625 -2.453125 C 2.625 -2.234375 2.734375 -1.929688 2.734375 -1.546875 L 2.734375 -1.171875 L 0.984375 -1.171875 C 0.984375 -0.960938 1.039062 -0.796875 1.15625 -0.671875 C 1.28125 -0.554688 1.445312 -0.5 1.65625 -0.5 C 1.820312 -0.5 1.976562 -0.515625 2.125 -0.546875 C 2.269531 -0.585938 2.421875 -0.644531 2.578125 -0.71875 L 2.578125 -0.140625 C 2.453125 -0.078125 2.316406 -0.03125 2.171875 0 C 2.023438 0.03125 1.84375 0.046875 1.625 0.046875 Z M 1.625 0.046875 "/></g></g><g transform="translate(23.578449, 29.895756)"><g><path d="M 1.921875 -2.78125 C 2.015625 -2.78125 2.097656 -2.773438 2.171875 -2.765625 L 2.109375 -2.0625 C 2.046875 -2.070312 1.972656 -2.078125 1.890625 -2.078125 C 1.648438 -2.078125 1.460938 -2.015625 1.328125 -1.890625 C 1.203125 -1.773438 1.140625 -1.609375 1.140625 -1.390625 L 1.140625 0 L 0.390625 0 L 0.390625 -2.734375 L 0.953125 -2.734375 L 1.0625 -2.265625 L 1.09375 -2.265625 C 1.1875 -2.421875 1.300781 -2.546875 1.4375 -2.640625 C 1.582031 -2.734375 1.742188 -2.78125 1.921875 -2.78125 Z M 1.921875 -2.78125 "/></g></g><g transform="translate(25.848956, 29.895756)"><g><path d="M 2.296875 -0.8125 C 2.296875 -0.53125 2.195312 -0.316406 2 -0.171875 C 1.8125 -0.0234375 1.519531 0.046875 1.125 0.046875 C 0.925781 0.046875 0.753906 0.03125 0.609375 0 C 0.472656 -0.0195312 0.347656 -0.0546875 0.234375 -0.109375 L 0.234375 -0.71875 C 0.367188 -0.65625 0.519531 -0.601562 0.6875 -0.5625 C 0.863281 -0.519531 1.019531 -0.5 1.15625 -0.5 C 1.425781 -0.5 1.5625 -0.578125 1.5625 -0.734375 C 1.5625 -0.785156 1.539062 -0.828125 1.5 -0.859375 C 1.46875 -0.898438 1.40625 -0.941406 1.3125 -0.984375 C 1.226562 -1.035156 1.113281 -1.09375 0.96875 -1.15625 C 0.757812 -1.25 0.601562 -1.332031 0.5 -1.40625 C 0.40625 -1.476562 0.332031 -1.5625 0.28125 -1.65625 C 0.238281 -1.757812 0.21875 -1.878906 0.21875 -2.015625 C 0.21875 -2.265625 0.3125 -2.453125 0.5 -2.578125 C 0.6875 -2.710938 0.957031 -2.78125 1.3125 -2.78125 C 1.632812 -2.78125 1.953125 -2.707031 2.265625 -2.5625 L 2.046875 -2.03125 C 1.910156 -2.082031 1.78125 -2.128906 1.65625 -2.171875 C 1.539062 -2.210938 1.421875 -2.234375 1.296875 -2.234375 C 1.078125 -2.234375 0.96875 -2.171875 0.96875 -2.046875 C 0.96875 -1.984375 1 -1.925781 1.0625 -1.875 C 1.132812 -1.820312 1.289062 -1.75 1.53125 -1.65625 C 1.75 -1.570312 1.90625 -1.492188 2 -1.421875 C 2.101562 -1.347656 2.175781 -1.257812 2.21875 -1.15625 C 2.269531 -1.0625 2.296875 -0.945312 2.296875 -0.8125 Z M 2.296875 -0.8125 "/></g></g></g></svg>