<svg width="14" height="14" viewBox="0 0 14 14" fill="none" xmlns="http://www.w3.org/2000/svg">
<path fill-rule="evenodd" clip-rule="evenodd" d="M12.6386 0.233845L7 5.87244L1.3614 0.233845C1.04961 -0.0779484 0.545638 -0.0779484 0.233845 0.233845C-0.0779484 0.545638 -0.0779484 1.04961 0.233845 1.3614L5.87244 7L0.233845 12.6386C-0.0779484 12.9504 -0.0779484 13.4544 0.233845 13.7662C0.389343 13.9217 0.593484 13.9998 0.797625 13.9998C1.00177 13.9998 1.20591 13.9217 1.3614 13.7662L7 8.12756L12.6386 13.7662C12.7941 13.9217 12.9982 13.9998 13.2024 13.9998C13.4065 13.9998 13.6107 13.9217 13.7662 13.7662C14.0779 13.4544 14.0779 12.9504 13.7662 12.6386L8.12756 7L13.7662 1.3614C14.0779 1.04961 14.0779 0.544841 13.7662 0.233845C13.4544 -0.0779484 12.9504 -0.0779484 12.6386 0.233845Z" fill="#999999"/>
</svg>
