<svg xmlns="http://www.w3.org/2000/svg" xmlns:xlink="http://www.w3.org/1999/xlink" width="50" zoomAndPan="magnify" viewBox="0 0 37.5 37.499999" height="50" preserveAspectRatio="xMidYMid meet" version="1.0"><defs><g/><clipPath id="id1"><path d="M 17 3.75 L 21 3.75 L 21 9 L 17 9 Z M 17 3.75 " clip-rule="nonzero"/></clipPath></defs><path fill="#ef7743" d="M 18.15625 6.089844 C 18.050781 5.988281 17.878906 5.855469 17.636719 5.777344 C 17 5.578125 16.4375 5.96875 16.359375 6.027344 C 16.179688 5.9375 15.53125 5.648438 14.789062 5.886719 C 14.484375 5.984375 14.257812 6.140625 14.113281 6.261719 C 13.699219 6.304688 13.121094 6.402344 12.484375 6.667969 C 9.070312 8.082031 8.304688 12.570312 8.175781 13.417969 C 8.039062 14.363281 7.824219 15.941406 8.550781 17.730469 C 9.03125 18.902344 9.730469 19.707031 10.207031 20.171875 C 10.40625 20.59375 10.832031 21.351562 11.65625 22.011719 C 12.550781 22.730469 13.460938 22.972656 13.921875 23.0625 C 14.171875 23.207031 14.53125 23.378906 14.992188 23.488281 C 15.429688 23.59375 15.808594 23.613281 16.089844 23.601562 C 16.304688 23.707031 16.609375 23.828125 16.992188 23.886719 C 17.476562 23.964844 17.886719 23.914062 18.148438 23.859375 C 18.457031 23.921875 18.933594 23.988281 19.507812 23.914062 C 20.078125 23.84375 20.523438 23.664062 20.8125 23.523438 C 21.035156 23.53125 21.359375 23.511719 21.726562 23.410156 C 22.082031 23.3125 22.363281 23.164062 22.550781 23.046875 C 22.804688 23.03125 23.148438 22.980469 23.539062 22.835938 C 23.835938 22.726562 24.074219 22.589844 24.25 22.46875 C 24.960938 22.136719 26.8125 21.15625 27.988281 18.996094 C 27.988281 18.996094 29.464844 16.28125 28.734375 13.019531 C 28.6875 12.808594 28.644531 12.648438 28.617188 12.546875 C 28.210938 11.066406 27.472656 9.945312 27.085938 9.363281 C 26.382812 8.316406 25.785156 7.777344 25.582031 7.597656 C 25.0625 7.148438 24.363281 6.554688 23.300781 6.339844 C 22.902344 6.257812 22.558594 6.253906 22.324219 6.261719 C 22.039062 6.121094 21.539062 5.921875 20.898438 5.898438 C 20.449219 5.878906 20.074219 5.949219 19.808594 6.023438 C 19.632812 5.695312 19.28125 5.5 18.917969 5.53125 C 18.585938 5.5625 18.292969 5.777344 18.15625 6.089844 Z M 18.15625 6.089844 " fill-opacity="1" fill-rule="nonzero"/><path fill="#d8720b" d="M 14.363281 7.449219 C 13.355469 8.117188 12.46875 8.933594 11.777344 9.894531 C 11.078125 10.851562 10.574219 11.9375 10.269531 13.078125 C 9.964844 14.226562 9.78125 15.414062 9.773438 16.605469 C 9.765625 17.796875 9.921875 18.992188 10.207031 20.171875 C 9.734375 19.054688 9.46875 17.839844 9.40625 16.613281 C 9.375 15.996094 9.402344 15.378906 9.472656 14.765625 C 9.550781 14.15625 9.660156 13.554688 9.820312 12.957031 C 9.984375 12.359375 10.203125 11.777344 10.480469 11.222656 C 10.761719 10.671875 11.09375 10.144531 11.488281 9.671875 C 12.265625 8.714844 13.261719 7.945312 14.363281 7.449219 Z M 14.363281 7.449219 " fill-opacity="1" fill-rule="nonzero"/><path fill="#d8720b" d="M 16.117188 8.050781 C 15.558594 8.484375 15.03125 8.945312 14.589844 9.484375 C 14.132812 10.007812 13.738281 10.578125 13.402344 11.179688 C 13.074219 11.789062 12.796875 12.421875 12.589844 13.082031 C 12.375 13.738281 12.21875 14.414062 12.128906 15.097656 C 12.078125 15.4375 12.0625 15.78125 12.03125 16.125 C 12.027344 16.46875 12.011719 16.816406 12.039062 17.160156 C 12.066406 17.847656 12.164062 18.535156 12.324219 19.210938 C 12.648438 20.558594 13.183594 21.863281 13.921875 23.0625 C 13.035156 21.96875 12.367188 20.679688 11.972656 19.304688 C 11.574219 17.929688 11.46875 16.457031 11.667969 15.03125 C 11.867188 13.609375 12.335938 12.21875 13.089844 10.996094 C 13.839844 9.777344 14.890625 8.742188 16.117188 8.050781 Z M 16.117188 8.050781 " fill-opacity="1" fill-rule="nonzero"/><path fill="#d8720b" d="M 17.253906 8.757812 C 16.382812 9.773438 15.679688 10.90625 15.179688 12.121094 C 14.679688 13.339844 14.355469 14.625 14.246094 15.933594 C 14.183594 16.585938 14.175781 17.242188 14.21875 17.898438 C 14.257812 18.554688 14.355469 19.203125 14.5 19.84375 C 14.796875 21.125 15.289062 22.367188 15.964844 23.523438 C 15.140625 22.472656 14.515625 21.246094 14.148438 19.9375 C 13.769531 18.628906 13.667969 17.246094 13.78125 15.890625 C 13.84375 15.210938 13.960938 14.539062 14.140625 13.882812 C 14.324219 13.226562 14.550781 12.582031 14.847656 11.972656 C 15.421875 10.742188 16.253906 9.640625 17.253906 8.757812 Z M 17.253906 8.757812 " fill-opacity="1" fill-rule="nonzero"/><path fill="#d8720b" d="M 18.371094 8.882812 C 18.046875 10.109375 17.78125 11.339844 17.625 12.582031 C 17.457031 13.816406 17.410156 15.078125 17.324219 16.335938 C 17.292969 16.960938 17.277344 17.585938 17.292969 18.210938 C 17.308594 18.832031 17.347656 19.457031 17.425781 20.078125 C 17.566406 21.324219 17.824219 22.558594 18.167969 23.777344 C 17.667969 22.613281 17.316406 21.382812 17.097656 20.128906 C 16.878906 18.875 16.800781 17.582031 16.867188 16.3125 C 16.894531 15.675781 16.9375 15.046875 16.988281 14.414062 C 17.039062 13.78125 17.125 13.144531 17.234375 12.519531 C 17.472656 11.265625 17.839844 10.035156 18.371094 8.882812 Z M 18.371094 8.882812 " fill-opacity="1" fill-rule="nonzero"/><path fill="#d8720b" d="M 14.636719 6.917969 C 13.621094 7.25 12.675781 7.753906 11.875 8.421875 C 11.078125 9.097656 10.414062 9.917969 9.917969 10.835938 C 9.410156 11.753906 9.058594 12.75 8.804688 13.78125 C 8.554688 14.8125 8.382812 15.863281 8.320312 16.941406 C 8.1875 15.871094 8.261719 14.769531 8.449219 13.703125 C 8.632812 12.632812 8.984375 11.578125 9.507812 10.609375 C 9.773438 10.128906 10.089844 9.671875 10.445312 9.253906 L 10.722656 8.945312 L 11.019531 8.660156 C 11.214844 8.464844 11.429688 8.296875 11.652344 8.132812 C 12.535156 7.484375 13.574219 7.0625 14.636719 6.917969 Z M 14.636719 6.917969 " fill-opacity="1" fill-rule="nonzero"/><path fill="#d8720b" d="M 21.050781 10.300781 C 21.351562 11.386719 21.625 12.476562 21.835938 13.582031 C 21.949219 14.136719 22.035156 14.699219 22.097656 15.261719 L 22.203125 16.953125 C 22.234375 17.519531 22.242188 18.078125 22.253906 18.644531 C 22.25 19.207031 22.261719 19.777344 22.164062 20.355469 C 21.980469 21.492188 21.515625 22.566406 20.859375 23.480469 C 21.347656 22.464844 21.691406 21.398438 21.800781 20.304688 C 21.851562 19.765625 21.832031 19.210938 21.808594 18.652344 C 21.785156 18.097656 21.773438 17.53125 21.738281 16.976562 L 21.65625 15.304688 C 21.621094 14.746094 21.546875 14.199219 21.476562 13.644531 C 21.335938 12.53125 21.160156 11.421875 21.050781 10.300781 Z M 21.050781 10.300781 " fill-opacity="1" fill-rule="nonzero"/><path fill="#d8720b" d="M 21.914062 9.855469 C 22.585938 10.796875 23.125 11.839844 23.523438 12.941406 C 23.917969 14.046875 24.171875 15.1875 24.328125 16.351562 C 24.363281 16.644531 24.382812 16.941406 24.394531 17.234375 C 24.40625 17.523438 24.414062 17.816406 24.40625 18.113281 C 24.390625 18.703125 24.328125 19.296875 24.1875 19.871094 C 23.917969 21.023438 23.386719 22.101562 22.652344 22.996094 C 23.222656 21.988281 23.636719 20.910156 23.832031 19.796875 C 23.921875 19.238281 23.972656 18.675781 23.964844 18.109375 C 23.957031 17.542969 23.933594 16.964844 23.863281 16.40625 C 23.722656 15.28125 23.492188 14.152344 23.175781 13.054688 C 22.855469 11.960938 22.421875 10.894531 21.914062 9.855469 Z M 21.914062 9.855469 " fill-opacity="1" fill-rule="nonzero"/><path fill="#d8720b" d="M 21.238281 8.417969 C 22.46875 8.703125 23.644531 9.433594 24.390625 10.523438 C 24.765625 11.058594 25.046875 11.636719 25.34375 12.195312 C 25.636719 12.757812 25.925781 13.339844 26.148438 13.953125 C 26.582031 15.179688 26.796875 16.484375 26.707031 17.785156 C 26.660156 18.4375 26.511719 19.070312 26.359375 19.683594 C 26.207031 20.304688 26.027344 20.921875 25.800781 21.515625 C 25.929688 20.890625 26.046875 20.269531 26.136719 19.640625 C 26.234375 19.011719 26.332031 18.386719 26.34375 17.769531 C 26.351562 17.148438 26.296875 16.523438 26.1875 15.914062 C 26.082031 15.300781 25.925781 14.695312 25.710938 14.113281 C 25.503906 13.527344 25.230469 12.96875 24.953125 12.398438 C 24.675781 11.824219 24.40625 11.253906 24.085938 10.726562 C 23.449219 9.675781 22.410156 8.890625 21.238281 8.417969 Z M 21.238281 8.417969 " fill-opacity="1" fill-rule="nonzero"/><path fill="#d8720b" d="M 21.726562 8.039062 C 22.863281 7.972656 24.046875 8.292969 25.015625 8.960938 C 25.507812 9.292969 25.929688 9.71875 26.289062 10.183594 C 26.472656 10.414062 26.632812 10.660156 26.785156 10.90625 C 26.9375 11.148438 27.089844 11.394531 27.226562 11.65625 C 27.496094 12.175781 27.714844 12.726562 27.878906 13.285156 C 28.03125 13.847656 28.164062 14.40625 28.246094 14.984375 C 28.414062 16.132812 28.40625 17.304688 28.210938 18.433594 C 28.210938 17.285156 28.117188 16.152344 27.886719 15.046875 C 27.769531 14.5 27.625 13.949219 27.453125 13.414062 C 27.285156 12.882812 27.074219 12.367188 26.8125 11.875 C 26.28125 10.890625 25.679688 9.929688 24.804688 9.257812 C 23.933594 8.578125 22.855469 8.171875 21.726562 8.039062 Z M 21.726562 8.039062 " fill-opacity="1" fill-rule="nonzero"/><path fill="#d8720b" d="M 14.457031 6.433594 C 14.785156 6.355469 15.136719 6.398438 15.445312 6.542969 C 15.597656 6.617188 15.742188 6.707031 15.867188 6.820312 C 15.992188 6.929688 16.101562 7.058594 16.199219 7.195312 C 16.039062 7.132812 15.902344 7.046875 15.761719 6.972656 C 15.625 6.894531 15.488281 6.820312 15.347656 6.757812 C 15.074219 6.621094 14.773438 6.542969 14.457031 6.433594 Z M 14.457031 6.433594 " fill-opacity="1" fill-rule="nonzero"/><path fill="#d8720b" d="M 16.523438 6.207031 C 16.667969 6.199219 16.808594 6.222656 16.941406 6.269531 C 17.078125 6.316406 17.207031 6.382812 17.324219 6.488281 C 17.425781 6.601562 17.507812 6.714844 17.570312 6.847656 C 17.632812 6.976562 17.667969 7.117188 17.6875 7.257812 C 17.578125 7.15625 17.503906 7.042969 17.417969 6.945312 C 17.378906 6.890625 17.332031 6.847656 17.289062 6.800781 C 17.246094 6.753906 17.207031 6.695312 17.164062 6.660156 C 17.082031 6.582031 16.972656 6.507812 16.863281 6.4375 C 16.753906 6.363281 16.636719 6.292969 16.523438 6.207031 Z M 16.523438 6.207031 " fill-opacity="1" fill-rule="nonzero"/><path fill="#d8720b" d="M 20.199219 7.382812 C 20.34375 7.015625 20.652344 6.71875 21.015625 6.546875 C 21.378906 6.378906 21.800781 6.328125 22.175781 6.453125 C 21.789062 6.515625 21.441406 6.601562 21.113281 6.757812 C 20.78125 6.910156 20.492188 7.125 20.199219 7.382812 Z M 20.199219 7.382812 " fill-opacity="1" fill-rule="nonzero"/><g clip-path="url(#id1)"><path fill="#578900" d="M 17.566406 7.496094 C 17.496094 7.5 17.234375 7.515625 17.144531 7.699219 C 17.054688 7.886719 17.210938 8.101562 17.230469 8.128906 C 17.328125 8.265625 17.460938 8.316406 17.667969 8.394531 C 17.851562 8.460938 17.996094 8.492188 18.179688 8.519531 C 18.453125 8.558594 18.585938 8.578125 18.769531 8.582031 C 19.082031 8.585938 19.308594 8.539062 19.457031 8.507812 C 19.671875 8.460938 19.800781 8.414062 19.921875 8.328125 C 20.082031 8.222656 20.113281 8.132812 20.121094 8.101562 C 20.148438 8.011719 20.144531 7.886719 20.070312 7.800781 C 20.042969 7.765625 20 7.734375 19.777344 7.691406 C 19.691406 7.671875 19.570312 7.652344 19.421875 7.636719 C 19.46875 7.316406 19.507812 6.980469 19.535156 6.628906 C 19.617188 5.558594 19.570312 4.585938 19.472656 3.742188 C 19.371094 3.824219 19.191406 3.953125 18.933594 4.019531 C 18.726562 4.074219 18.550781 4.074219 18.433594 4.0625 C 18.421875 4.109375 18.402344 4.1875 18.382812 4.285156 C 18.242188 4.945312 18.296875 5.246094 18.179688 5.8125 C 18.121094 6.097656 18.113281 6.046875 18.042969 6.320312 C 17.925781 6.761719 18.007812 7.171875 17.964844 7.605469 C 17.894531 7.5625 17.753906 7.492188 17.566406 7.496094 Z M 17.566406 7.496094 " fill-opacity="1" fill-rule="nonzero"/></g><g fill="#000000" fill-opacity="1"><g transform="translate(7.780924, 30.645758)"><g><path d="M 3.609375 0 L 2.65625 0 L 1.09375 -2.703125 L 1.078125 -2.703125 C 1.109375 -2.222656 1.125 -1.882812 1.125 -1.6875 L 1.125 0 L 0.453125 0 L 0.453125 -3.5625 L 1.40625 -3.5625 L 2.953125 -0.890625 L 2.96875 -0.890625 C 2.945312 -1.359375 2.9375 -1.6875 2.9375 -1.875 L 2.9375 -3.5625 L 3.609375 -3.5625 Z M 3.609375 0 "/></g></g><g transform="translate(11.845865, 30.645758)"><g><path d="M 1.515625 -2.25 C 1.359375 -2.25 1.234375 -2.195312 1.140625 -2.09375 C 1.054688 -2 1.007812 -1.859375 1 -1.671875 L 2.046875 -1.671875 C 2.035156 -1.859375 1.984375 -2 1.890625 -2.09375 C 1.804688 -2.195312 1.679688 -2.25 1.515625 -2.25 Z M 1.625 0.046875 C 1.1875 0.046875 0.84375 -0.0703125 0.59375 -0.3125 C 0.34375 -0.550781 0.21875 -0.894531 0.21875 -1.34375 C 0.21875 -1.800781 0.332031 -2.15625 0.5625 -2.40625 C 0.789062 -2.65625 1.109375 -2.78125 1.515625 -2.78125 C 1.898438 -2.78125 2.195312 -2.671875 2.40625 -2.453125 C 2.625 -2.234375 2.734375 -1.929688 2.734375 -1.546875 L 2.734375 -1.171875 L 0.984375 -1.171875 C 0.984375 -0.960938 1.039062 -0.796875 1.15625 -0.671875 C 1.28125 -0.554688 1.445312 -0.5 1.65625 -0.5 C 1.820312 -0.5 1.976562 -0.515625 2.125 -0.546875 C 2.269531 -0.585938 2.421875 -0.644531 2.578125 -0.71875 L 2.578125 -0.140625 C 2.453125 -0.078125 2.316406 -0.03125 2.171875 0 C 2.023438 0.03125 1.84375 0.046875 1.625 0.046875 Z M 1.625 0.046875 "/></g></g><g transform="translate(14.799966, 30.645758)"><g><path d="M 1.546875 -0.546875 C 1.671875 -0.546875 1.828125 -0.570312 2.015625 -0.625 L 2.015625 -0.078125 C 1.828125 0.00390625 1.597656 0.046875 1.328125 0.046875 C 1.023438 0.046875 0.804688 -0.0234375 0.671875 -0.171875 C 0.535156 -0.328125 0.46875 -0.554688 0.46875 -0.859375 L 0.46875 -2.171875 L 0.109375 -2.171875 L 0.109375 -2.484375 L 0.53125 -2.734375 L 0.734375 -3.3125 L 1.21875 -3.3125 L 1.21875 -2.734375 L 1.984375 -2.734375 L 1.984375 -2.171875 L 1.21875 -2.171875 L 1.21875 -0.859375 C 1.21875 -0.753906 1.242188 -0.675781 1.296875 -0.625 C 1.359375 -0.570312 1.441406 -0.546875 1.546875 -0.546875 Z M 1.546875 -0.546875 "/></g></g><g transform="translate(16.970376, 30.645758)"><g><path d="M 2.640625 0 L 2.421875 -0.953125 L 2.140625 -2.15625 L 2.125 -2.15625 L 1.625 0 L 0.828125 0 L 0.046875 -2.734375 L 0.796875 -2.734375 L 1.109375 -1.515625 C 1.160156 -1.304688 1.210938 -1.007812 1.265625 -0.625 L 1.28125 -0.625 C 1.28125 -0.75 1.304688 -0.945312 1.359375 -1.21875 L 1.40625 -1.421875 L 1.734375 -2.734375 L 2.5625 -2.734375 L 2.875 -1.421875 C 2.882812 -1.390625 2.894531 -1.335938 2.90625 -1.265625 C 2.914062 -1.191406 2.925781 -1.113281 2.9375 -1.03125 C 2.957031 -0.957031 2.972656 -0.878906 2.984375 -0.796875 C 2.992188 -0.722656 3 -0.664062 3 -0.625 L 3.015625 -0.625 C 3.023438 -0.738281 3.050781 -0.894531 3.09375 -1.09375 C 3.132812 -1.300781 3.160156 -1.441406 3.171875 -1.515625 L 3.5 -2.734375 L 4.234375 -2.734375 L 3.4375 0 Z M 2.640625 0 "/></g></g><g transform="translate(21.250161, 30.645758)"><g><path d="M 0.984375 -1.375 C 0.984375 -1.101562 1.023438 -0.894531 1.109375 -0.75 C 1.203125 -0.613281 1.347656 -0.546875 1.546875 -0.546875 C 1.742188 -0.546875 1.882812 -0.613281 1.96875 -0.75 C 2.0625 -0.894531 2.109375 -1.101562 2.109375 -1.375 C 2.109375 -1.644531 2.0625 -1.847656 1.96875 -1.984375 C 1.882812 -2.117188 1.742188 -2.1875 1.546875 -2.1875 C 1.347656 -2.1875 1.203125 -2.117188 1.109375 -1.984375 C 1.023438 -1.847656 0.984375 -1.644531 0.984375 -1.375 Z M 2.875 -1.375 C 2.875 -0.925781 2.753906 -0.578125 2.515625 -0.328125 C 2.285156 -0.078125 1.960938 0.046875 1.546875 0.046875 C 1.273438 0.046875 1.039062 -0.0078125 0.84375 -0.125 C 0.644531 -0.238281 0.488281 -0.398438 0.375 -0.609375 C 0.269531 -0.828125 0.21875 -1.082031 0.21875 -1.375 C 0.21875 -1.8125 0.332031 -2.15625 0.5625 -2.40625 C 0.800781 -2.65625 1.132812 -2.78125 1.5625 -2.78125 C 1.820312 -2.78125 2.050781 -2.722656 2.25 -2.609375 C 2.445312 -2.492188 2.597656 -2.328125 2.703125 -2.109375 C 2.816406 -1.898438 2.875 -1.65625 2.875 -1.375 Z M 2.875 -1.375 "/></g></g><g transform="translate(24.345864, 30.645758)"><g><path d="M 1.921875 -2.78125 C 2.015625 -2.78125 2.097656 -2.773438 2.171875 -2.765625 L 2.109375 -2.0625 C 2.046875 -2.070312 1.972656 -2.078125 1.890625 -2.078125 C 1.648438 -2.078125 1.460938 -2.015625 1.328125 -1.890625 C 1.203125 -1.773438 1.140625 -1.609375 1.140625 -1.390625 L 1.140625 0 L 0.390625 0 L 0.390625 -2.734375 L 0.953125 -2.734375 L 1.0625 -2.265625 L 1.09375 -2.265625 C 1.1875 -2.421875 1.300781 -2.546875 1.4375 -2.640625 C 1.582031 -2.734375 1.742188 -2.78125 1.921875 -2.78125 Z M 1.921875 -2.78125 "/></g></g><g transform="translate(26.616371, 30.645758)"><g><path d="M 1.109375 -1.484375 L 1.4375 -1.90625 L 2.1875 -2.734375 L 3.03125 -2.734375 L 1.953125 -1.546875 L 3.09375 0 L 2.234375 0 L 1.453125 -1.109375 L 1.140625 -0.84375 L 1.140625 0 L 0.390625 0 L 0.390625 -3.796875 L 1.140625 -3.796875 L 1.140625 -2.109375 L 1.09375 -1.484375 Z M 1.109375 -1.484375 "/></g></g></g></svg>