<svg xmlns="http://www.w3.org/2000/svg" xmlns:xlink="http://www.w3.org/1999/xlink" width="50" zoomAndPan="magnify" viewBox="0 0 37.5 37.499999" height="50" preserveAspectRatio="xMidYMid meet" version="1.0"><defs><g/><clipPath id="id1"><path d="M 13 1.199219 L 21 1.199219 L 21 6 L 13 6 Z M 13 1.199219 " clip-rule="nonzero"/></clipPath><clipPath id="id2"><path d="M 18 1.199219 L 24 1.199219 L 24 11 L 18 11 Z M 18 1.199219 " clip-rule="nonzero"/></clipPath><clipPath id="id3"><path d="M 10 6 L 28 6 L 28 24.449219 L 10 24.449219 Z M 10 6 " clip-rule="nonzero"/></clipPath></defs><g clip-path="url(#id1)"><path fill="#578900" d="M 20.078125 5.042969 C 20.066406 5.050781 20.054688 5.058594 20.039062 5.066406 C 19.898438 5.164062 19.675781 5.292969 19.378906 5.382812 C 19.367188 5.386719 19.351562 5.390625 19.339844 5.394531 C 18.132812 5.738281 16.742188 5.113281 15.933594 4.269531 C 15.449219 3.761719 15.488281 3.503906 14.917969 3.039062 C 14.382812 2.605469 13.828125 2.402344 13.441406 2.300781 C 13.710938 2.0625 14.539062 1.390625 15.792969 1.28125 C 16.167969 1.253906 17.402344 1.199219 18.535156 2.054688 C 19.953125 3.136719 20.0625 4.796875 20.078125 5.042969 Z M 20.078125 5.042969 " fill-opacity="1" fill-rule="nonzero"/></g><path fill="#9bba27" d="M 20.039062 5.066406 C 19.898438 5.164062 19.675781 5.292969 19.378906 5.382812 C 19.316406 5.183594 19.214844 4.917969 19.046875 4.621094 C 19.046875 4.621094 18.773438 4.128906 18.351562 3.695312 C 17.816406 3.152344 16.59375 2.503906 14.929688 2.238281 C 15.375 2.191406 16.847656 2.097656 18.28125 3.046875 C 19.316406 3.734375 19.828125 4.628906 20.039062 5.066406 Z M 20.039062 5.066406 " fill-opacity="1" fill-rule="nonzero"/><g clip-path="url(#id2)"><path fill="#1e0a02" d="M 19.375 10.332031 C 19.042969 10.390625 18.707031 10.453125 18.375 10.511719 C 18.269531 9.648438 18.230469 8.296875 18.734375 6.78125 C 19.847656 3.445312 22.71875 1.929688 23.410156 1.589844 C 23.441406 1.714844 23.511719 1.925781 23.679688 2.128906 C 23.78125 2.253906 23.890625 2.34375 23.976562 2.398438 C 23.511719 2.582031 20.578125 3.777344 19.566406 6.867188 C 19.09375 8.316406 19.234375 9.605469 19.375 10.332031 Z M 19.375 10.332031 " fill-opacity="1" fill-rule="nonzero"/></g><g clip-path="url(#id3)"><path fill="#ef7743" d="M 27.59375 16.875 C 27.453125 18.097656 27.238281 20.019531 25.738281 21.679688 C 24.109375 23.476562 21.976562 23.835938 20.875 24.023438 C 20.273438 24.125 17.972656 24.453125 15.359375 23.375 C 14.332031 22.953125 12.703125 22.28125 11.554688 20.632812 C 9.398438 17.546875 10.742188 13.644531 11.046875 12.765625 C 11.398438 11.734375 12.046875 9.859375 13.796875 8.523438 C 14.660156 7.867188 15.6875 7.421875 16.789062 7.171875 C 18.464844 6.796875 20.308594 6.882812 21.992188 7.402344 C 23.800781 7.953125 25.421875 9.007812 26.441406 10.515625 C 28.050781 12.890625 27.726562 15.730469 27.59375 16.875 Z M 27.59375 16.875 " fill-opacity="1" fill-rule="nonzero"/></g><path fill="#d64d09" d="M 11.996094 20.507812 C 11.707031 19.382812 11.421875 17.757812 11.527344 15.800781 C 11.617188 14.164062 11.953125 12.808594 12.28125 11.808594 C 11.863281 12.535156 11.253906 13.8125 11.085938 15.511719 C 10.851562 17.882812 11.609375 19.710938 11.996094 20.507812 Z M 11.996094 20.507812 " fill-opacity="1" fill-rule="nonzero"/><path fill="#d64d09" d="M 23.398438 22.183594 C 22.167969 22.871094 21.027344 23.160156 20.261719 23.289062 C 20.746094 23.339844 22.179688 23.425781 23.644531 22.554688 C 24.835938 21.84375 25.433594 20.863281 25.671875 20.414062 C 25.179688 20.929688 24.433594 21.601562 23.398438 22.183594 Z M 23.398438 22.183594 " fill-opacity="1" fill-rule="nonzero"/><path fill="#d64d09" d="M 25.796875 20.136719 C 26.042969 20.023438 26.25 19.824219 26.371094 19.578125 C 26.449219 19.417969 26.519531 19.191406 26.492188 19.011719 C 26.445312 18.734375 26.320312 18.960938 26.265625 19.09375 C 26.121094 19.445312 26.023438 19.824219 25.796875 20.136719 Z M 25.796875 20.136719 " fill-opacity="1" fill-rule="nonzero"/><path fill="#d64d09" d="M 21.992188 7.402344 C 21.953125 7.507812 21.867188 7.582031 21.828125 7.605469 C 21.53125 7.773438 21.1875 7.722656 20.867188 7.683594 C 20.023438 7.582031 19.167969 7.574219 18.324219 7.664062 C 18.324219 7.664062 18.144531 7.679688 17.867188 7.675781 C 17.25 7.671875 16.9375 7.660156 16.828125 7.445312 C 16.792969 7.375 16.78125 7.273438 16.789062 7.171875 C 18.464844 6.796875 20.308594 6.882812 21.992188 7.402344 Z M 21.992188 7.402344 " fill-opacity="1" fill-rule="nonzero"/><g fill="#000000" fill-opacity="1"><g transform="translate(6.400716, 30.645758)"><g><path d="M 3.40625 -1.8125 C 3.40625 -1.226562 3.238281 -0.78125 2.90625 -0.46875 C 2.570312 -0.15625 2.085938 0 1.453125 0 L 0.453125 0 L 0.453125 -3.5625 L 1.5625 -3.5625 C 2.144531 -3.5625 2.597656 -3.40625 2.921875 -3.09375 C 3.242188 -2.789062 3.40625 -2.363281 3.40625 -1.8125 Z M 2.625 -1.796875 C 2.625 -2.566406 2.285156 -2.953125 1.609375 -2.953125 L 1.203125 -2.953125 L 1.203125 -0.625 L 1.53125 -0.625 C 2.257812 -0.625 2.625 -1.015625 2.625 -1.796875 Z M 2.625 -1.796875 "/></g></g><g transform="translate(10.101888, 30.645758)"><g><path d="M 1.515625 -2.25 C 1.359375 -2.25 1.234375 -2.195312 1.140625 -2.09375 C 1.054688 -2 1.007812 -1.859375 1 -1.671875 L 2.046875 -1.671875 C 2.035156 -1.859375 1.984375 -2 1.890625 -2.09375 C 1.804688 -2.195312 1.679688 -2.25 1.515625 -2.25 Z M 1.625 0.046875 C 1.1875 0.046875 0.84375 -0.0703125 0.59375 -0.3125 C 0.34375 -0.550781 0.21875 -0.894531 0.21875 -1.34375 C 0.21875 -1.800781 0.332031 -2.15625 0.5625 -2.40625 C 0.789062 -2.65625 1.109375 -2.78125 1.515625 -2.78125 C 1.898438 -2.78125 2.195312 -2.671875 2.40625 -2.453125 C 2.625 -2.234375 2.734375 -1.929688 2.734375 -1.546875 L 2.734375 -1.171875 L 0.984375 -1.171875 C 0.984375 -0.960938 1.039062 -0.796875 1.15625 -0.671875 C 1.28125 -0.554688 1.445312 -0.5 1.65625 -0.5 C 1.820312 -0.5 1.976562 -0.515625 2.125 -0.546875 C 2.269531 -0.585938 2.421875 -0.644531 2.578125 -0.71875 L 2.578125 -0.140625 C 2.453125 -0.078125 2.316406 -0.03125 2.171875 0 C 2.023438 0.03125 1.84375 0.046875 1.625 0.046875 Z M 1.625 0.046875 "/></g></g><g transform="translate(13.055989, 30.645758)"><g><path d="M 1.515625 -2.25 C 1.359375 -2.25 1.234375 -2.195312 1.140625 -2.09375 C 1.054688 -2 1.007812 -1.859375 1 -1.671875 L 2.046875 -1.671875 C 2.035156 -1.859375 1.984375 -2 1.890625 -2.09375 C 1.804688 -2.195312 1.679688 -2.25 1.515625 -2.25 Z M 1.625 0.046875 C 1.1875 0.046875 0.84375 -0.0703125 0.59375 -0.3125 C 0.34375 -0.550781 0.21875 -0.894531 0.21875 -1.34375 C 0.21875 -1.800781 0.332031 -2.15625 0.5625 -2.40625 C 0.789062 -2.65625 1.109375 -2.78125 1.515625 -2.78125 C 1.898438 -2.78125 2.195312 -2.671875 2.40625 -2.453125 C 2.625 -2.234375 2.734375 -1.929688 2.734375 -1.546875 L 2.734375 -1.171875 L 0.984375 -1.171875 C 0.984375 -0.960938 1.039062 -0.796875 1.15625 -0.671875 C 1.28125 -0.554688 1.445312 -0.5 1.65625 -0.5 C 1.820312 -0.5 1.976562 -0.515625 2.125 -0.546875 C 2.269531 -0.585938 2.421875 -0.644531 2.578125 -0.71875 L 2.578125 -0.140625 C 2.453125 -0.078125 2.316406 -0.03125 2.171875 0 C 2.023438 0.03125 1.84375 0.046875 1.625 0.046875 Z M 1.625 0.046875 "/></g></g><g transform="translate(16.01009, 30.645758)"><g><path d="M 1.890625 0.046875 C 1.566406 0.046875 1.316406 -0.0664062 1.140625 -0.296875 L 1.09375 -0.296875 C 1.125 -0.0664062 1.140625 0.0625 1.140625 0.09375 L 1.140625 1.203125 L 0.390625 1.203125 L 0.390625 -2.734375 L 1 -2.734375 L 1.09375 -2.375 L 1.140625 -2.375 C 1.304688 -2.644531 1.5625 -2.78125 1.90625 -2.78125 C 2.226562 -2.78125 2.476562 -2.65625 2.65625 -2.40625 C 2.84375 -2.15625 2.9375 -1.8125 2.9375 -1.375 C 2.9375 -1.082031 2.894531 -0.828125 2.8125 -0.609375 C 2.726562 -0.390625 2.601562 -0.222656 2.4375 -0.109375 C 2.28125 -0.00390625 2.097656 0.046875 1.890625 0.046875 Z M 1.671875 -2.1875 C 1.484375 -2.1875 1.347656 -2.128906 1.265625 -2.015625 C 1.179688 -1.898438 1.140625 -1.710938 1.140625 -1.453125 L 1.140625 -1.375 C 1.140625 -1.082031 1.179688 -0.867188 1.265625 -0.734375 C 1.347656 -0.609375 1.488281 -0.546875 1.6875 -0.546875 C 2.019531 -0.546875 2.1875 -0.820312 2.1875 -1.375 C 2.1875 -1.644531 2.144531 -1.847656 2.0625 -1.984375 C 1.976562 -2.117188 1.847656 -2.1875 1.671875 -2.1875 Z M 1.671875 -2.1875 "/></g></g><g transform="translate(19.174152, 30.645758)"><g><path d="M 1.140625 0 L 0.390625 0 L 0.390625 -3.796875 L 1.140625 -3.796875 Z M 1.140625 0 "/></g></g><g transform="translate(20.700031, 30.645758)"><g><path d="M 0.359375 -3.4375 C 0.359375 -3.675781 0.492188 -3.796875 0.765625 -3.796875 C 1.035156 -3.796875 1.171875 -3.675781 1.171875 -3.4375 C 1.171875 -3.320312 1.132812 -3.226562 1.0625 -3.15625 C 1 -3.09375 0.898438 -3.0625 0.765625 -3.0625 C 0.492188 -3.0625 0.359375 -3.1875 0.359375 -3.4375 Z M 1.140625 0 L 0.390625 0 L 0.390625 -2.734375 L 1.140625 -2.734375 Z M 1.140625 0 "/></g></g><g transform="translate(22.22591, 30.645758)"><g><path d="M 2.90625 0 L 2.171875 0 L 2.171875 -1.59375 C 2.171875 -1.789062 2.132812 -1.9375 2.0625 -2.03125 C 1.988281 -2.132812 1.875 -2.1875 1.71875 -2.1875 C 1.507812 -2.1875 1.359375 -2.113281 1.265625 -1.96875 C 1.179688 -1.832031 1.140625 -1.601562 1.140625 -1.28125 L 1.140625 0 L 0.390625 0 L 0.390625 -2.734375 L 0.953125 -2.734375 L 1.0625 -2.375 L 1.09375 -2.375 C 1.175781 -2.507812 1.289062 -2.609375 1.4375 -2.671875 C 1.582031 -2.742188 1.75 -2.78125 1.9375 -2.78125 C 2.257812 -2.78125 2.5 -2.691406 2.65625 -2.515625 C 2.820312 -2.347656 2.90625 -2.101562 2.90625 -1.78125 Z M 2.90625 0 "/></g></g><g transform="translate(25.512042, 30.645758)"><g><path d="M 1.109375 -1.484375 L 1.4375 -1.90625 L 2.1875 -2.734375 L 3.03125 -2.734375 L 1.953125 -1.546875 L 3.09375 0 L 2.234375 0 L 1.453125 -1.109375 L 1.140625 -0.84375 L 1.140625 0 L 0.390625 0 L 0.390625 -3.796875 L 1.140625 -3.796875 L 1.140625 -2.109375 L 1.09375 -1.484375 Z M 1.109375 -1.484375 "/></g></g><g transform="translate(28.612628, 30.645758)"><g><path d="M 2.296875 -0.8125 C 2.296875 -0.53125 2.195312 -0.316406 2 -0.171875 C 1.8125 -0.0234375 1.519531 0.046875 1.125 0.046875 C 0.925781 0.046875 0.753906 0.03125 0.609375 0 C 0.472656 -0.0195312 0.347656 -0.0546875 0.234375 -0.109375 L 0.234375 -0.71875 C 0.367188 -0.65625 0.519531 -0.601562 0.6875 -0.5625 C 0.863281 -0.519531 1.019531 -0.5 1.15625 -0.5 C 1.425781 -0.5 1.5625 -0.578125 1.5625 -0.734375 C 1.5625 -0.785156 1.539062 -0.828125 1.5 -0.859375 C 1.46875 -0.898438 1.40625 -0.941406 1.3125 -0.984375 C 1.226562 -1.035156 1.113281 -1.09375 0.96875 -1.15625 C 0.757812 -1.25 0.601562 -1.332031 0.5 -1.40625 C 0.40625 -1.476562 0.332031 -1.5625 0.28125 -1.65625 C 0.238281 -1.757812 0.21875 -1.878906 0.21875 -2.015625 C 0.21875 -2.265625 0.3125 -2.453125 0.5 -2.578125 C 0.6875 -2.710938 0.957031 -2.78125 1.3125 -2.78125 C 1.632812 -2.78125 1.953125 -2.707031 2.265625 -2.5625 L 2.046875 -2.03125 C 1.910156 -2.082031 1.78125 -2.128906 1.65625 -2.171875 C 1.539062 -2.210938 1.421875 -2.234375 1.296875 -2.234375 C 1.078125 -2.234375 0.96875 -2.171875 0.96875 -2.046875 C 0.96875 -1.984375 1 -1.925781 1.0625 -1.875 C 1.132812 -1.820312 1.289062 -1.75 1.53125 -1.65625 C 1.75 -1.570312 1.90625 -1.492188 2 -1.421875 C 2.101562 -1.347656 2.175781 -1.257812 2.21875 -1.15625 C 2.269531 -1.0625 2.296875 -0.945312 2.296875 -0.8125 Z M 2.296875 -0.8125 "/></g></g></g></svg>