<svg xmlns="http://www.w3.org/2000/svg" xmlns:xlink="http://www.w3.org/1999/xlink" width="50" zoomAndPan="magnify" viewBox="0 0 37.5 37.499999" height="50" preserveAspectRatio="xMidYMid meet" version="1.0"><defs><g/><clipPath id="id1"><path d="M 8 3.101562 L 30 3.101562 L 30 24 L 8 24 Z M 8 3.101562 " clip-rule="nonzero"/></clipPath><clipPath id="id2"><path d="M 7.113281 3.101562 L 30.363281 3.101562 L 30.363281 24.101562 L 7.113281 24.101562 Z M 7.113281 3.101562 " clip-rule="nonzero"/></clipPath></defs><g clip-path="url(#id1)"><path fill="#f6d54b" d="M 12.464844 5.3125 C 9.671875 7.230469 8.824219 10.054688 8.585938 10.894531 C 8.363281 11.675781 7.265625 15.902344 9.949219 19.640625 C 12.914062 23.765625 17.980469 23.800781 18.894531 23.808594 C 19.769531 23.8125 24.621094 23.847656 27.707031 19.964844 C 30.277344 16.734375 29.859375 13.007812 29.734375 12.117188 C 29.609375 11.265625 29.253906 8.996094 27.441406 6.96875 C 24.890625 4.117188 21.332031 3.847656 19.785156 3.726562 C 18.238281 3.609375 15.273438 3.382812 12.464844 5.3125 Z M 12.464844 5.3125 " fill-opacity="1" fill-rule="nonzero"/></g><path fill="#ef7743" d="M 19.792969 9.171875 C 19.917969 8.023438 20.121094 6.4375 20.933594 5.363281 C 21.238281 4.957031 21.523438 4.765625 21.828125 4.691406 C 22.230469 4.589844 22.601562 4.714844 22.9375 4.824219 C 23.097656 4.878906 23.445312 5.007812 23.820312 5.285156 C 24.070312 5.472656 24.34375 5.675781 24.484375 5.976562 C 24.691406 6.421875 24.550781 6.925781 24.332031 7.417969 C 23.808594 8.605469 23.035156 9.320312 22.097656 10.273438 C 20.339844 12.066406 20.039062 12.648438 19.742188 12.527344 C 19.453125 12.40625 19.5625 11.328125 19.792969 9.171875 Z M 19.792969 9.171875 " fill-opacity="1" fill-rule="nonzero"/><path fill="#ef7743" d="M 22.566406 10.65625 C 23.433594 9.882812 24.65625 8.835938 25.984375 8.574219 C 26.484375 8.476562 26.828125 8.519531 27.105469 8.667969 C 27.472656 8.859375 27.664062 9.195312 27.839844 9.5 C 27.921875 9.644531 28.09375 9.972656 28.183594 10.429688 C 28.242188 10.734375 28.308594 11.0625 28.210938 11.382812 C 28.066406 11.847656 27.621094 12.128906 27.125 12.351562 C 25.933594 12.890625 24.875 12.90625 23.539062 12.996094 C 21.015625 13.167969 20.402344 13.40625 20.261719 13.113281 C 20.128906 12.835938 20.9375 12.105469 22.566406 10.65625 Z M 22.566406 10.65625 " fill-opacity="1" fill-rule="nonzero"/><path fill="#ef7743" d="M 23.761719 13.464844 C 24.925781 13.367188 26.539062 13.265625 27.757812 13.855469 C 28.214844 14.078125 28.457031 14.320312 28.589844 14.601562 C 28.765625 14.972656 28.710938 15.359375 28.664062 15.707031 C 28.644531 15.871094 28.578125 16.234375 28.371094 16.648438 C 28.234375 16.929688 28.082031 17.230469 27.808594 17.425781 C 27.410156 17.710938 26.882812 17.667969 26.351562 17.546875 C 25.074219 17.261719 24.222656 16.640625 23.101562 15.910156 C 20.992188 14.535156 20.355469 14.355469 20.425781 14.039062 C 20.488281 13.734375 21.582031 13.640625 23.761719 13.464844 Z M 23.761719 13.464844 " fill-opacity="1" fill-rule="nonzero"/><path fill="#ef7743" d="M 22.859375 16.394531 C 23.8125 17.0625 25.113281 18.007812 25.664062 19.238281 C 25.871094 19.695312 25.902344 20.039062 25.820312 20.335938 C 25.710938 20.734375 25.421875 20.996094 25.160156 21.230469 C 25.035156 21.34375 24.753906 21.582031 24.324219 21.769531 C 24.035156 21.894531 23.722656 22.027344 23.390625 22.003906 C 22.898438 21.96875 22.523438 21.601562 22.191406 21.171875 C 21.398438 20.140625 21.148438 19.125 20.765625 17.851562 C 20.039062 15.453125 19.671875 14.914062 19.925781 14.714844 C 20.171875 14.523438 21.070312 15.144531 22.859375 16.394531 Z M 22.859375 16.394531 " fill-opacity="1" fill-rule="nonzero"/><path fill="#ef7743" d="M 20.304688 18.128906 C 20.578125 19.253906 20.921875 20.816406 20.519531 22.097656 C 20.367188 22.578125 20.164062 22.855469 19.902344 23.027344 C 19.558594 23.253906 19.164062 23.261719 18.808594 23.265625 C 18.644531 23.269531 18.269531 23.261719 17.824219 23.121094 C 17.523438 23.027344 17.199219 22.925781 16.964844 22.691406 C 16.621094 22.34375 16.582031 21.820312 16.621094 21.28125 C 16.714844 19.988281 17.203125 19.0625 17.765625 17.855469 C 18.816406 15.582031 18.902344 14.933594 19.226562 14.949219 C 19.535156 14.96875 19.796875 16.023438 20.304688 18.128906 Z M 20.304688 18.128906 " fill-opacity="1" fill-rule="nonzero"/><path fill="#ef7743" d="M 17.085938 17.835938 C 16.574219 18.871094 15.835938 20.296875 14.699219 21.03125 C 14.273438 21.304688 13.9375 21.390625 13.625 21.355469 C 13.210938 21.3125 12.90625 21.070312 12.628906 20.851562 C 12.496094 20.75 12.214844 20.511719 11.960938 20.121094 C 11.789062 19.859375 11.605469 19.574219 11.574219 19.246094 C 11.53125 18.757812 11.839844 18.332031 12.21875 17.941406 C 13.121094 17.003906 14.09375 16.601562 15.304688 16.019531 C 17.578125 14.933594 18.058594 14.484375 18.296875 14.703125 C 18.527344 14.914062 18.050781 15.890625 17.085938 17.835938 Z M 17.085938 17.835938 " fill-opacity="1" fill-rule="nonzero"/><path fill="#ef7743" d="M 14.980469 15.429688 C 13.929688 15.933594 12.464844 16.605469 11.113281 16.492188 C 10.605469 16.449219 10.289062 16.3125 10.0625 16.09375 C 9.765625 15.808594 9.671875 15.433594 9.589844 15.089844 C 9.550781 14.929688 9.476562 14.570312 9.519531 14.105469 C 9.546875 13.796875 9.578125 13.460938 9.761719 13.183594 C 10.027344 12.773438 10.535156 12.625 11.074219 12.546875 C 12.371094 12.359375 13.390625 12.632812 14.703125 12.914062 C 17.171875 13.4375 17.832031 13.378906 17.882812 13.699219 C 17.933594 14.003906 16.949219 14.484375 14.980469 15.429688 Z M 14.980469 15.429688 " fill-opacity="1" fill-rule="nonzero"/><path fill="#ef7743" d="M 14.898438 12.429688 C 13.765625 12.152344 12.207031 11.738281 11.242188 10.796875 C 10.878906 10.441406 10.726562 10.132812 10.691406 9.828125 C 10.648438 9.417969 10.820312 9.070312 10.976562 8.753906 C 11.050781 8.605469 11.226562 8.28125 11.558594 7.953125 C 11.78125 7.734375 12.023438 7.496094 12.34375 7.398438 C 12.8125 7.253906 13.296875 7.460938 13.761719 7.742188 C 14.878906 8.417969 15.488281 9.273438 16.3125 10.320312 C 17.871094 12.289062 18.414062 12.664062 18.25 12.941406 C 18.089844 13.207031 17.023438 12.953125 14.898438 12.429688 Z M 14.898438 12.429688 " fill-opacity="1" fill-rule="nonzero"/><path fill="#ef7743" d="M 16.691406 9.875 C 16.039062 8.914062 15.160156 7.570312 15.085938 6.230469 C 15.058594 5.726562 15.152344 5.398438 15.335938 5.148438 C 15.578125 4.816406 15.941406 4.671875 16.273438 4.542969 C 16.429688 4.480469 16.78125 4.359375 17.25 4.335938 C 17.5625 4.320312 17.902344 4.300781 18.207031 4.441406 C 18.652344 4.648438 18.871094 5.125 19.027344 5.644531 C 19.394531 6.886719 19.265625 7.921875 19.167969 9.25 C 18.988281 11.742188 19.136719 12.378906 18.828125 12.476562 C 18.53125 12.566406 17.914062 11.671875 16.691406 9.875 Z M 16.691406 9.875 " fill-opacity="1" fill-rule="nonzero"/><path fill="#fd9a03" d="M 18.769531 13.304688 C 18.640625 13.445312 18.59375 13.652344 18.636719 13.839844 C 18.691406 14.070312 18.890625 14.261719 19.125 14.3125 C 19.359375 14.363281 19.621094 14.269531 19.765625 14.082031 C 19.8125 14.023438 19.847656 13.957031 19.871094 13.886719 C 19.890625 13.820312 19.898438 13.75 19.890625 13.683594 C 19.851562 13.164062 19.125 12.929688 18.769531 13.304688 Z M 18.769531 13.304688 " fill-opacity="1" fill-rule="nonzero"/><g clip-path="url(#id2)"><path fill="#fd9a03" d="M 18.984375 24.058594 C 18.953125 24.058594 18.921875 24.058594 18.890625 24.058594 C 15.007812 24.03125 11.675781 22.472656 9.742188 19.785156 C 7.121094 16.132812 8.007812 12.003906 8.34375 10.828125 C 9.210938 7.761719 10.984375 6.023438 12.320312 5.105469 C 15.203125 3.125 18.195312 3.355469 19.804688 3.476562 C 21.363281 3.597656 25.015625 3.878906 27.632812 6.804688 C 29.53125 8.925781 29.871094 11.300781 29.984375 12.082031 C 30.183594 13.464844 30.375 17.015625 27.90625 20.121094 C 25.191406 23.53125 21.191406 24.058594 18.984375 24.058594 Z M 12.605469 5.519531 C 11.339844 6.386719 9.660156 8.039062 8.828125 10.960938 C 8.511719 12.085938 7.664062 16.023438 10.15625 19.492188 C 12.667969 22.996094 16.710938 23.542969 18.894531 23.558594 C 20.984375 23.566406 24.890625 23.105469 27.507812 19.8125 C 29.855469 16.855469 29.671875 13.46875 29.480469 12.152344 C 29.375 11.40625 29.050781 9.144531 27.253906 7.136719 C 24.769531 4.359375 21.261719 4.09375 19.765625 3.976562 C 18.21875 3.859375 15.339844 3.640625 12.605469 5.519531 Z M 12.605469 5.519531 " fill-opacity="1" fill-rule="nonzero"/></g><g fill="#000000" fill-opacity="1"><g transform="translate(10.476236, 30.945758)"><g><path d="M 2.5 0 L 0.453125 0 L 0.453125 -3.5625 L 2.5 -3.5625 L 2.5 -2.953125 L 1.203125 -2.953125 L 1.203125 -2.171875 L 2.421875 -2.171875 L 2.421875 -1.546875 L 1.203125 -1.546875 L 1.203125 -0.625 L 2.5 -0.625 Z M 2.5 0 "/></g></g><g transform="translate(13.276529, 30.945758)"><g><path d="M 1.046875 0 L 0 -2.734375 L 0.78125 -2.734375 L 1.3125 -1.171875 C 1.363281 -0.972656 1.398438 -0.785156 1.421875 -0.609375 L 1.4375 -0.609375 C 1.4375 -0.765625 1.472656 -0.953125 1.546875 -1.171875 L 2.0625 -2.734375 L 2.84375 -2.734375 L 1.796875 0 Z M 1.046875 0 "/></g></g><g transform="translate(16.120767, 30.945758)"><g><path d="M 1.515625 -2.25 C 1.359375 -2.25 1.234375 -2.195312 1.140625 -2.09375 C 1.054688 -2 1.007812 -1.859375 1 -1.671875 L 2.046875 -1.671875 C 2.035156 -1.859375 1.984375 -2 1.890625 -2.09375 C 1.804688 -2.195312 1.679688 -2.25 1.515625 -2.25 Z M 1.625 0.046875 C 1.1875 0.046875 0.84375 -0.0703125 0.59375 -0.3125 C 0.34375 -0.550781 0.21875 -0.894531 0.21875 -1.34375 C 0.21875 -1.800781 0.332031 -2.15625 0.5625 -2.40625 C 0.789062 -2.65625 1.109375 -2.78125 1.515625 -2.78125 C 1.898438 -2.78125 2.195312 -2.671875 2.40625 -2.453125 C 2.625 -2.234375 2.734375 -1.929688 2.734375 -1.546875 L 2.734375 -1.171875 L 0.984375 -1.171875 C 0.984375 -0.960938 1.039062 -0.796875 1.15625 -0.671875 C 1.28125 -0.554688 1.445312 -0.5 1.65625 -0.5 C 1.820312 -0.5 1.976562 -0.515625 2.125 -0.546875 C 2.269531 -0.585938 2.421875 -0.644531 2.578125 -0.71875 L 2.578125 -0.140625 C 2.453125 -0.078125 2.316406 -0.03125 2.171875 0 C 2.023438 0.03125 1.84375 0.046875 1.625 0.046875 Z M 1.625 0.046875 "/></g></g><g transform="translate(19.074868, 30.945758)"><g><path d="M 2.90625 0 L 2.171875 0 L 2.171875 -1.59375 C 2.171875 -1.789062 2.132812 -1.9375 2.0625 -2.03125 C 1.988281 -2.132812 1.875 -2.1875 1.71875 -2.1875 C 1.507812 -2.1875 1.359375 -2.113281 1.265625 -1.96875 C 1.179688 -1.832031 1.140625 -1.601562 1.140625 -1.28125 L 1.140625 0 L 0.390625 0 L 0.390625 -2.734375 L 0.953125 -2.734375 L 1.0625 -2.375 L 1.09375 -2.375 C 1.175781 -2.507812 1.289062 -2.609375 1.4375 -2.671875 C 1.582031 -2.742188 1.75 -2.78125 1.9375 -2.78125 C 2.257812 -2.78125 2.5 -2.691406 2.65625 -2.515625 C 2.820312 -2.347656 2.90625 -2.101562 2.90625 -1.78125 Z M 2.90625 0 "/></g></g><g transform="translate(22.361001, 30.945758)"><g><path d="M 1.546875 -0.546875 C 1.671875 -0.546875 1.828125 -0.570312 2.015625 -0.625 L 2.015625 -0.078125 C 1.828125 0.00390625 1.597656 0.046875 1.328125 0.046875 C 1.023438 0.046875 0.804688 -0.0234375 0.671875 -0.171875 C 0.535156 -0.328125 0.46875 -0.554688 0.46875 -0.859375 L 0.46875 -2.171875 L 0.109375 -2.171875 L 0.109375 -2.484375 L 0.53125 -2.734375 L 0.734375 -3.3125 L 1.21875 -3.3125 L 1.21875 -2.734375 L 1.984375 -2.734375 L 1.984375 -2.171875 L 1.21875 -2.171875 L 1.21875 -0.859375 C 1.21875 -0.753906 1.242188 -0.675781 1.296875 -0.625 C 1.359375 -0.570312 1.441406 -0.546875 1.546875 -0.546875 Z M 1.546875 -0.546875 "/></g></g><g transform="translate(24.531411, 30.945758)"><g><path d="M 2.296875 -0.8125 C 2.296875 -0.53125 2.195312 -0.316406 2 -0.171875 C 1.8125 -0.0234375 1.519531 0.046875 1.125 0.046875 C 0.925781 0.046875 0.753906 0.03125 0.609375 0 C 0.472656 -0.0195312 0.347656 -0.0546875 0.234375 -0.109375 L 0.234375 -0.71875 C 0.367188 -0.65625 0.519531 -0.601562 0.6875 -0.5625 C 0.863281 -0.519531 1.019531 -0.5 1.15625 -0.5 C 1.425781 -0.5 1.5625 -0.578125 1.5625 -0.734375 C 1.5625 -0.785156 1.539062 -0.828125 1.5 -0.859375 C 1.46875 -0.898438 1.40625 -0.941406 1.3125 -0.984375 C 1.226562 -1.035156 1.113281 -1.09375 0.96875 -1.15625 C 0.757812 -1.25 0.601562 -1.332031 0.5 -1.40625 C 0.40625 -1.476562 0.332031 -1.5625 0.28125 -1.65625 C 0.238281 -1.757812 0.21875 -1.878906 0.21875 -2.015625 C 0.21875 -2.265625 0.3125 -2.453125 0.5 -2.578125 C 0.6875 -2.710938 0.957031 -2.78125 1.3125 -2.78125 C 1.632812 -2.78125 1.953125 -2.707031 2.265625 -2.5625 L 2.046875 -2.03125 C 1.910156 -2.082031 1.78125 -2.128906 1.65625 -2.171875 C 1.539062 -2.210938 1.421875 -2.234375 1.296875 -2.234375 C 1.078125 -2.234375 0.96875 -2.171875 0.96875 -2.046875 C 0.96875 -1.984375 1 -1.925781 1.0625 -1.875 C 1.132812 -1.820312 1.289062 -1.75 1.53125 -1.65625 C 1.75 -1.570312 1.90625 -1.492188 2 -1.421875 C 2.101562 -1.347656 2.175781 -1.257812 2.21875 -1.15625 C 2.269531 -1.0625 2.296875 -0.945312 2.296875 -0.8125 Z M 2.296875 -0.8125 "/></g></g></g></svg>